<svg xmlns="http://www.w3.org/2000/svg" xml:space="preserve" style="fill-rule:evenodd;clip-rule:evenodd;stroke-linejoin:round;stroke-miterlimit:2" viewBox="0 0 815.16 815.16"><path d="M0 1050h1000v1000H0z" style="fill:none" transform="translate(-92.421 -1142.421)"></path><path d="M293.444 257.874A55.8 55.8 0 0 1 313.94 254h458.12c30.895 0 55.94 25.045 55.94 55.94v458.12c0 30.895-25.045 55.94-55.94 55.94H313.94c-30.895 0-55.94-25.045-55.94-55.94V309.94a55.8 55.8 0 0 1 3.734-20.136l73.768 73.768A57.8 57.8 0 0 0 331 386c0 24.034 14.65 44.673 35.5 53.467v200.7c-20.85 8.794-35.5 29.434-35.5 53.468 0 32.011 25.989 58 58 58s58-25.989 58-58c0-24.034-14.65-44.674-35.5-53.468V439.57l78.606 78.606A57.8 57.8 0 0 0 486.25 539c0 32.011 25.989 58 58 58s58-25.989 58-58-25.989-58-58-58a57.75 57.75 0 0 0-22.954 4.726l-78.363-78.363A57.8 57.8 0 0 0 447 386c0-32.011-25.989-58-58-58a57.8 57.8 0 0 0-21.363 4.067zm343.418 519.408q18.149 0 32.17-6.157 14.02-6.158 22.005-16.979 7.985-10.822 7.985-24.693 0-10.1-4.148-18.094t-12.266-13.145-19.982-6.674v-1.194q13.586-2.596 22.038-11.776t8.453-22.838q0-12.77-6.938-23.134t-19.491-16.487-29.288-6.123q-16.567 0-29.759 6.028-13.192 6.029-20.911 16.704t-7.921 24.651h32.115q.15-6.389 3.735-10.991 3.584-4.603 9.497-7.137 5.913-2.535 13.043-2.535 7.084 0 12.376 2.656 5.29 2.656 8.225 7.371 2.935 4.716 2.935 11.035 0 6.53-3.397 11.434t-9.457 7.67q-6.062 2.765-13.98 2.765h-15.06v24.831h15.06q9.48 0 16.276 2.912t10.457 8.043q3.661 5.13 3.661 11.92 0 6.59-3.501 11.624t-9.656 7.849q-6.156 2.816-14.191 2.816-7.7 0-13.912-2.505t-9.884-7.073-3.975-10.68h-33.628q.25 14.143 8.172 24.937 7.92 10.795 21.663 16.882t31.479 6.087m154.28-165.108H755.45l-36.016 25.248v30.572l37.356-26.42h1.093v133.521h33.259z" style="fill:#f03c2e" transform="translate(-368.966 -363.245)scale(1.4301)"></path></svg>
